<?xml version="1.0" encoding="UTF-8"?>
<!DOCTYPE svg PUBLIC "-//W3C//DTD SVG 1.1//EN" "http://www.w3.org/Graphics/SVG/1.1/DTD/svg11.dtd">
<!-- Creator: CorelDRAW X7 -->
<svg xmlns="http://www.w3.org/2000/svg" xml:space="preserve" width="54.466mm" height="15.0937mm" version="1.1" style="shape-rendering:geometricPrecision; text-rendering:geometricPrecision; image-rendering:optimizeQuality; fill-rule:evenodd; clip-rule:evenodd"
viewBox="0 0 2615 725"
 xmlns:xlink="http://www.w3.org/1999/xlink">
 <defs>
  <style type="text/css">
   <![CDATA[
    .fil1 {fill:#F57E79}
    .fil0 {fill:black}
   ]]>
  </style>
 </defs>
 <g id="Слой_x0020_1">
  <metadata id="CorelCorpID_0Corel-Layer"/>
  <g id="_708286416">
   <g>
    <g>
     <g>
      <path class="fil0" d="M1 464l107 0c0,-149 0,-304 0,-454l-107 0c0,150 0,305 0,454zm432 -454l0 0 0 234c-2,0 -147,-234 -147,-234 0,0 -77,0 -115,0 0,150 0,304 0,453l111 0c0,-79 0,-243 0,-243 0,0 102,164 151,243l111 0c0,-149 0,-303 0,-453l-111 0zm172 111l0 0 126 0c0,112 1,230 1,342l111 0c0,-112 0,-230 0,-342l126 0 0 -111 -364 0 0 111zm424 341l0 0 297 0 0 -111 -186 0c0,-20 0,-43 0,-63 60,0 186,0 186,0l0 -111c0,0 -126,0 -186,0l0 -56 187 0 0 -111 -298 0c0,150 0,303 0,452zm468 -452l0 0 -111 0c0,149 1,304 1,453l298 0 0 -111 -187 0c0,-112 -1,-230 -1,-342zm607 0l0 0 0 453 111 0 0 -453 -111 0z"/>
      <g>
       <g>
        <g>
         <g>
          <g>
           <g>
            <path class="fil0" d="M1 464l107 0c0,-149 0,-304 0,-454l-107 0c0,150 0,305 0,454zm432 -454l0 0 0 234c-2,0 -147,-234 -147,-234 0,0 -77,0 -115,0 0,150 0,304 0,453l111 0c0,-79 0,-243 0,-243 0,0 102,164 151,243l111 0c0,-149 0,-303 0,-453l-111 0zm172 111l0 0 126 0c0,112 1,230 1,342l111 0c0,-112 0,-230 0,-342l126 0 0 -111 -364 0 0 111zm424 341l0 0 297 0 0 -111 -186 0c0,-20 0,-43 0,-63 60,0 186,0 186,0l0 -111c0,0 -126,0 -186,0l0 -56 187 0 0 -111 -298 0c0,150 0,303 0,452zm468 -452l0 0 -111 0c0,149 1,304 1,453l298 0 0 -111 -187 0c0,-112 -1,-230 -1,-342zm607 0l0 0 0 453 111 0 0 -453 -111 0z"/>
           </g>
          </g>
         </g>
        </g>
       </g>
      </g>
      <path class="fil0" d="M2610 280c-6,-21 -17,-41 -29,-53 9,-14 19,-33 23,-53 7,-33 11,-99 -57,-142 -76,-47 -271,-22 -271,-22 0,59 0,259 0,259 0,63 0,126 0,189 3,0 5,0 7,0 36,4 203,36 272,-17 62,-48 67,-124 55,-161zm-223 -157l0 0c5,0 13,0 29,0 24,0 58,-2 70,10 18,18 8,44 -11,50 -11,3 -47,4 -88,3 0,-21 0,-42 0,-63zm0 163l0 0c41,-1 81,0 91,3 20,6 30,32 12,50 -12,12 -47,10 -70,10 -16,0 -28,0 -33,0 0,-21 0,-42 0,-63z"/>
      <path class="fil0" d="M2610 280c-6,-21 -17,-41 -29,-53 9,-14 19,-33 23,-53 7,-33 11,-99 -57,-142 -76,-47 -271,-22 -271,-22 0,59 0,259 0,259 0,63 0,126 0,189 3,0 5,0 7,0 36,4 203,36 272,-17 62,-48 67,-124 55,-161zm-223 -157l0 0c5,0 13,0 29,0 24,0 58,-2 70,10 18,18 8,44 -11,50 -11,3 -47,4 -88,3 0,-21 0,-42 0,-63zm0 163l0 0c41,-1 81,0 91,3 20,6 30,32 12,50 -12,12 -47,10 -70,10 -16,0 -28,0 -33,0 0,-21 0,-42 0,-63z"/>
      <path class="fil0" d="M2053 123c0,0 -2,-43 -38,-78 -29,-28 -87,-59 -169,-38 -81,20 -121,82 -111,159 9,73 97,104 130,116 34,13 89,20 85,50 -3,28 -36,40 -72,30 -36,-11 -46,-41 -46,-41l-105 29c0,0 -3,29 34,71 39,44 109,60 165,51 56,-9 127,-39 139,-123 13,-85 -29,-112 -53,-129 -16,-11 -74,-32 -111,-44 -18,-6 -43,-18 -49,-29 -5,-9 -6,-24 5,-36 26,-26 71,-14 84,12 6,12 6,23 6,23l106 -23z"/>
      <path class="fil0" d="M2053 123c0,0 -2,-43 -38,-78 -29,-28 -87,-59 -169,-38 -81,20 -121,82 -111,159 9,73 97,104 130,116 34,13 89,20 85,50 -3,28 -36,40 -72,30 -36,-11 -46,-41 -46,-41l-105 29c0,0 -3,29 34,71 39,44 109,60 165,51 56,-9 127,-39 139,-123 13,-85 -29,-112 -53,-129 -16,-11 -74,-32 -111,-44 -18,-6 -43,-18 -49,-29 -5,-9 -6,-24 5,-36 26,-26 71,-14 84,12 6,12 6,23 6,23l106 -23z"/>
     </g>
    </g>
    <polygon class="fil1" points="970,725 0,725 0,614 970,614 "/>
    <polygon class="fil1" points="970,725 0,725 0,614 970,614 "/>
   </g>
  </g>
 </g>
</svg>
